<mxfile host="app.diagrams.net" modified="2023-08-28T10:05:51.452Z" agent="Mozilla/5.0 (Windows NT 10.0; Win64; x64; rv:109.0) Gecko/20100101 Firefox/116.0" etag="f9xZHP_Bt_QmFAXhm3rL" version="21.6.9" type="device">
  <diagram name="Страница — 1" id="YmRs-ME6DN543bxOFU3w">
    <mxGraphModel dx="2261" dy="754" grid="1" gridSize="10" guides="1" tooltips="1" connect="1" arrows="1" fold="1" page="1" pageScale="1" pageWidth="827" pageHeight="1169" math="0" shadow="0">
      <root>
        <mxCell id="0" />
        <mxCell id="1" parent="0" />
        <mxCell id="6DGjHL69a0HhD9LLGAxK-5" value="Hospitals" style="swimlane;fontStyle=1;align=center;verticalAlign=top;childLayout=stackLayout;horizontal=1;startSize=26;horizontalStack=0;resizeParent=1;resizeParentMax=0;resizeLast=0;collapsible=1;marginBottom=0;whiteSpace=wrap;html=1;" parent="1" vertex="1">
          <mxGeometry x="-520" width="320" height="400" as="geometry">
            <mxRectangle x="340" y="24" width="90" height="30" as="alternateBounds" />
          </mxGeometry>
        </mxCell>
        <mxCell id="6DGjHL69a0HhD9LLGAxK-24" value="+ name: string" style="text;strokeColor=none;fillColor=none;align=left;verticalAlign=top;spacingLeft=4;spacingRight=4;overflow=hidden;rotatable=0;points=[[0,0.5],[1,0.5]];portConstraint=eastwest;whiteSpace=wrap;html=1;" parent="6DGjHL69a0HhD9LLGAxK-5" vertex="1">
          <mxGeometry y="26" width="320" height="26" as="geometry" />
        </mxCell>
        <mxCell id="6DGjHL69a0HhD9LLGAxK-21" value="+ address: string " style="text;strokeColor=none;fillColor=none;align=left;verticalAlign=top;spacingLeft=4;spacingRight=4;overflow=hidden;rotatable=0;points=[[0,0.5],[1,0.5]];portConstraint=eastwest;whiteSpace=wrap;html=1;" parent="6DGjHL69a0HhD9LLGAxK-5" vertex="1">
          <mxGeometry y="52" width="320" height="26" as="geometry" />
        </mxCell>
        <mxCell id="6DGjHL69a0HhD9LLGAxK-53" value="+ type: enum (municipal / private)" style="text;strokeColor=none;fillColor=none;align=left;verticalAlign=top;spacingLeft=4;spacingRight=4;overflow=hidden;rotatable=0;points=[[0,0.5],[1,0.5]];portConstraint=eastwest;whiteSpace=wrap;html=1;" parent="6DGjHL69a0HhD9LLGAxK-5" vertex="1">
          <mxGeometry y="78" width="320" height="26" as="geometry" />
        </mxCell>
        <mxCell id="6DGjHL69a0HhD9LLGAxK-25" value="+ specialisation: enum (common / specific)" style="text;strokeColor=none;fillColor=none;align=left;verticalAlign=top;spacingLeft=4;spacingRight=4;overflow=hidden;rotatable=0;points=[[0,0.5],[1,0.5]];portConstraint=eastwest;whiteSpace=wrap;html=1;" parent="6DGjHL69a0HhD9LLGAxK-5" vertex="1">
          <mxGeometry y="104" width="320" height="26" as="geometry" />
        </mxCell>
        <mxCell id="6DGjHL69a0HhD9LLGAxK-52" value="+ workday_type: enum (schedule / around the clock)" style="text;strokeColor=none;fillColor=none;align=left;verticalAlign=top;spacingLeft=4;spacingRight=4;overflow=hidden;rotatable=0;points=[[0,0.5],[1,0.5]];portConstraint=eastwest;whiteSpace=wrap;html=1;" parent="6DGjHL69a0HhD9LLGAxK-5" vertex="1">
          <mxGeometry y="130" width="320" height="26" as="geometry" />
        </mxCell>
        <mxCell id="6DGjHL69a0HhD9LLGAxK-41" value="+ list_services: vector &amp;lt;Service&amp;gt; " style="text;strokeColor=none;fillColor=none;align=left;verticalAlign=top;spacingLeft=4;spacingRight=4;overflow=hidden;rotatable=0;points=[[0,0.5],[1,0.5]];portConstraint=eastwest;whiteSpace=wrap;html=1;" parent="6DGjHL69a0HhD9LLGAxK-5" vertex="1">
          <mxGeometry y="156" width="320" height="28" as="geometry" />
        </mxCell>
        <mxCell id="6DGjHL69a0HhD9LLGAxK-23" value="+ list_doctors: vector&amp;lt;Doctor&amp;gt;" style="text;strokeColor=none;fillColor=none;align=left;verticalAlign=top;spacingLeft=4;spacingRight=4;overflow=hidden;rotatable=0;points=[[0,0.5],[1,0.5]];portConstraint=eastwest;whiteSpace=wrap;html=1;" parent="6DGjHL69a0HhD9LLGAxK-5" vertex="1">
          <mxGeometry y="184" width="320" height="26" as="geometry" />
        </mxCell>
        <mxCell id="6DGjHL69a0HhD9LLGAxK-7" value="" style="line;strokeWidth=1;fillColor=none;align=left;verticalAlign=middle;spacingTop=-1;spacingLeft=3;spacingRight=3;rotatable=0;labelPosition=right;points=[];portConstraint=eastwest;strokeColor=inherit;" parent="6DGjHL69a0HhD9LLGAxK-5" vertex="1">
          <mxGeometry y="210" width="320" height="8" as="geometry" />
        </mxCell>
        <mxCell id="6DGjHL69a0HhD9LLGAxK-50" value="+ add / dismiss service" style="text;strokeColor=none;fillColor=none;align=left;verticalAlign=top;spacingLeft=4;spacingRight=4;overflow=hidden;rotatable=0;points=[[0,0.5],[1,0.5]];portConstraint=eastwest;whiteSpace=wrap;html=1;" parent="6DGjHL69a0HhD9LLGAxK-5" vertex="1">
          <mxGeometry y="218" width="320" height="26" as="geometry" />
        </mxCell>
        <mxCell id="6DGjHL69a0HhD9LLGAxK-51" value="+ set / reset cost of service" style="text;strokeColor=none;fillColor=none;align=left;verticalAlign=top;spacingLeft=4;spacingRight=4;overflow=hidden;rotatable=0;points=[[0,0.5],[1,0.5]];portConstraint=eastwest;whiteSpace=wrap;html=1;" parent="6DGjHL69a0HhD9LLGAxK-5" vertex="1">
          <mxGeometry y="244" width="320" height="26" as="geometry" />
        </mxCell>
        <mxCell id="6DGjHL69a0HhD9LLGAxK-28" value="+ hire / fire personel" style="text;strokeColor=none;fillColor=none;align=left;verticalAlign=top;spacingLeft=4;spacingRight=4;overflow=hidden;rotatable=0;points=[[0,0.5],[1,0.5]];portConstraint=eastwest;whiteSpace=wrap;html=1;" parent="6DGjHL69a0HhD9LLGAxK-5" vertex="1">
          <mxGeometry y="270" width="320" height="26" as="geometry" />
        </mxCell>
        <mxCell id="6DGjHL69a0HhD9LLGAxK-43" value="+ provide service for patient" style="text;strokeColor=none;fillColor=none;align=left;verticalAlign=top;spacingLeft=4;spacingRight=4;overflow=hidden;rotatable=0;points=[[0,0.5],[1,0.5]];portConstraint=eastwest;whiteSpace=wrap;html=1;" parent="6DGjHL69a0HhD9LLGAxK-5" vertex="1">
          <mxGeometry y="296" width="320" height="26" as="geometry" />
        </mxCell>
        <mxCell id="6DGjHL69a0HhD9LLGAxK-47" value="+ pay salary " style="text;strokeColor=none;fillColor=none;align=left;verticalAlign=top;spacingLeft=4;spacingRight=4;overflow=hidden;rotatable=0;points=[[0,0.5],[1,0.5]];portConstraint=eastwest;whiteSpace=wrap;html=1;" parent="6DGjHL69a0HhD9LLGAxK-5" vertex="1">
          <mxGeometry y="322" width="320" height="26" as="geometry" />
        </mxCell>
        <mxCell id="6DGjHL69a0HhD9LLGAxK-46" value="+ buy medicines / materials" style="text;strokeColor=none;fillColor=none;align=left;verticalAlign=top;spacingLeft=4;spacingRight=4;overflow=hidden;rotatable=0;points=[[0,0.5],[1,0.5]];portConstraint=eastwest;whiteSpace=wrap;html=1;" parent="6DGjHL69a0HhD9LLGAxK-5" vertex="1">
          <mxGeometry y="348" width="320" height="26" as="geometry" />
        </mxCell>
        <mxCell id="6DGjHL69a0HhD9LLGAxK-42" value="+ lead / save patient&#39;s illness history" style="text;strokeColor=none;fillColor=none;align=left;verticalAlign=top;spacingLeft=4;spacingRight=4;overflow=hidden;rotatable=0;points=[[0,0.5],[1,0.5]];portConstraint=eastwest;whiteSpace=wrap;html=1;" parent="6DGjHL69a0HhD9LLGAxK-5" vertex="1">
          <mxGeometry y="374" width="320" height="26" as="geometry" />
        </mxCell>
        <mxCell id="6DGjHL69a0HhD9LLGAxK-17" value="Administrator" style="swimlane;fontStyle=0;childLayout=stackLayout;horizontal=1;startSize=30;horizontalStack=0;resizeParent=1;resizeParentMax=0;resizeLast=0;collapsible=1;marginBottom=0;whiteSpace=wrap;html=1;" parent="1" vertex="1">
          <mxGeometry x="-520" y="840" width="280" height="150" as="geometry" />
        </mxCell>
        <mxCell id="6DGjHL69a0HhD9LLGAxK-18" value="+ add (set) appointment record (Appointment)" style="text;strokeColor=none;fillColor=none;align=left;verticalAlign=middle;spacingLeft=4;spacingRight=4;overflow=hidden;points=[[0,0.5],[1,0.5]];portConstraint=eastwest;rotatable=0;whiteSpace=wrap;html=1;" parent="6DGjHL69a0HhD9LLGAxK-17" vertex="1">
          <mxGeometry y="30" width="280" height="30" as="geometry" />
        </mxCell>
        <mxCell id="6DGjHL69a0HhD9LLGAxK-19" value="+ confirm appointment to patient" style="text;strokeColor=none;fillColor=none;align=left;verticalAlign=middle;spacingLeft=4;spacingRight=4;overflow=hidden;points=[[0,0.5],[1,0.5]];portConstraint=eastwest;rotatable=0;whiteSpace=wrap;html=1;" parent="6DGjHL69a0HhD9LLGAxK-17" vertex="1">
          <mxGeometry y="60" width="280" height="30" as="geometry" />
        </mxCell>
        <mxCell id="6DGjHL69a0HhD9LLGAxK-20" value="&lt;div&gt;+ contact to patient&lt;/div&gt;" style="text;strokeColor=none;fillColor=none;align=left;verticalAlign=middle;spacingLeft=4;spacingRight=4;overflow=hidden;points=[[0,0.5],[1,0.5]];portConstraint=eastwest;rotatable=0;whiteSpace=wrap;html=1;" parent="6DGjHL69a0HhD9LLGAxK-17" vertex="1">
          <mxGeometry y="90" width="280" height="30" as="geometry" />
        </mxCell>
        <mxCell id="wdqz7naByt3iV3KVul7O-1" value="+ arrange appointment" style="text;strokeColor=none;fillColor=none;align=left;verticalAlign=middle;spacingLeft=4;spacingRight=4;overflow=hidden;points=[[0,0.5],[1,0.5]];portConstraint=eastwest;rotatable=0;whiteSpace=wrap;html=1;" vertex="1" parent="6DGjHL69a0HhD9LLGAxK-17">
          <mxGeometry y="120" width="280" height="30" as="geometry" />
        </mxCell>
        <mxCell id="6DGjHL69a0HhD9LLGAxK-29" value="Doctors" style="swimlane;fontStyle=1;align=center;verticalAlign=top;childLayout=stackLayout;horizontal=1;startSize=26;horizontalStack=0;resizeParent=1;resizeParentMax=0;resizeLast=0;collapsible=1;marginBottom=0;whiteSpace=wrap;html=1;" parent="1" vertex="1">
          <mxGeometry x="-160" width="280" height="420" as="geometry">
            <mxRectangle x="340" y="24" width="90" height="30" as="alternateBounds" />
          </mxGeometry>
        </mxCell>
        <mxCell id="6DGjHL69a0HhD9LLGAxK-30" value="+ name: string" style="text;strokeColor=none;fillColor=none;align=left;verticalAlign=top;spacingLeft=4;spacingRight=4;overflow=hidden;rotatable=0;points=[[0,0.5],[1,0.5]];portConstraint=eastwest;whiteSpace=wrap;html=1;" parent="6DGjHL69a0HhD9LLGAxK-29" vertex="1">
          <mxGeometry y="26" width="280" height="26" as="geometry" />
        </mxCell>
        <mxCell id="6DGjHL69a0HhD9LLGAxK-31" value="+ specialisation: string " style="text;strokeColor=none;fillColor=none;align=left;verticalAlign=top;spacingLeft=4;spacingRight=4;overflow=hidden;rotatable=0;points=[[0,0.5],[1,0.5]];portConstraint=eastwest;whiteSpace=wrap;html=1;" parent="6DGjHL69a0HhD9LLGAxK-29" vertex="1">
          <mxGeometry y="52" width="280" height="26" as="geometry" />
        </mxCell>
        <mxCell id="6DGjHL69a0HhD9LLGAxK-33" value="+ experience: time" style="text;strokeColor=none;fillColor=none;align=left;verticalAlign=top;spacingLeft=4;spacingRight=4;overflow=hidden;rotatable=0;points=[[0,0.5],[1,0.5]];portConstraint=eastwest;whiteSpace=wrap;html=1;" parent="6DGjHL69a0HhD9LLGAxK-29" vertex="1">
          <mxGeometry y="78" width="280" height="26" as="geometry" />
        </mxCell>
        <mxCell id="6DGjHL69a0HhD9LLGAxK-34" value="+ rating / ranks" style="text;strokeColor=none;fillColor=none;align=left;verticalAlign=top;spacingLeft=4;spacingRight=4;overflow=hidden;rotatable=0;points=[[0,0.5],[1,0.5]];portConstraint=eastwest;whiteSpace=wrap;html=1;" parent="6DGjHL69a0HhD9LLGAxK-29" vertex="1">
          <mxGeometry y="104" width="280" height="26" as="geometry" />
        </mxCell>
        <mxCell id="6DGjHL69a0HhD9LLGAxK-32" value="+ schedule_table: vector &amp;lt;Appointment&amp;gt; " style="text;strokeColor=none;fillColor=none;align=left;verticalAlign=top;spacingLeft=4;spacingRight=4;overflow=hidden;rotatable=0;points=[[0,0.5],[1,0.5]];portConstraint=eastwest;whiteSpace=wrap;html=1;" parent="6DGjHL69a0HhD9LLGAxK-29" vertex="1">
          <mxGeometry y="130" width="280" height="26" as="geometry" />
        </mxCell>
        <mxCell id="6DGjHL69a0HhD9LLGAxK-35" value="+ list_current_patients: vector&amp;lt;Patient&amp;gt;" style="text;strokeColor=none;fillColor=none;align=left;verticalAlign=top;spacingLeft=4;spacingRight=4;overflow=hidden;rotatable=0;points=[[0,0.5],[1,0.5]];portConstraint=eastwest;whiteSpace=wrap;html=1;" parent="6DGjHL69a0HhD9LLGAxK-29" vertex="1">
          <mxGeometry y="156" width="280" height="26" as="geometry" />
        </mxCell>
        <mxCell id="6DGjHL69a0HhD9LLGAxK-36" value="" style="line;strokeWidth=1;fillColor=none;align=left;verticalAlign=middle;spacingTop=-1;spacingLeft=3;spacingRight=3;rotatable=0;labelPosition=right;points=[];portConstraint=eastwest;strokeColor=inherit;" parent="6DGjHL69a0HhD9LLGAxK-29" vertex="1">
          <mxGeometry y="182" width="280" height="8" as="geometry" />
        </mxCell>
        <mxCell id="6DGjHL69a0HhD9LLGAxK-55" value="+ quiz the symptoms" style="text;strokeColor=none;fillColor=none;align=left;verticalAlign=top;spacingLeft=4;spacingRight=4;overflow=hidden;rotatable=0;points=[[0,0.5],[1,0.5]];portConstraint=eastwest;whiteSpace=wrap;html=1;" parent="6DGjHL69a0HhD9LLGAxK-29" vertex="1">
          <mxGeometry y="190" width="280" height="26" as="geometry" />
        </mxCell>
        <mxCell id="6DGjHL69a0HhD9LLGAxK-56" value="+ inspection the patient" style="text;strokeColor=none;fillColor=none;align=left;verticalAlign=top;spacingLeft=4;spacingRight=4;overflow=hidden;rotatable=0;points=[[0,0.5],[1,0.5]];portConstraint=eastwest;whiteSpace=wrap;html=1;" parent="6DGjHL69a0HhD9LLGAxK-29" vertex="1">
          <mxGeometry y="216" width="280" height="26" as="geometry" />
        </mxCell>
        <mxCell id="6DGjHL69a0HhD9LLGAxK-37" value="+&amp;nbsp;treat the patient (provide procedure / write out receipt )" style="text;strokeColor=none;fillColor=none;align=left;verticalAlign=top;spacingLeft=4;spacingRight=4;overflow=hidden;rotatable=0;points=[[0,0.5],[1,0.5]];portConstraint=eastwest;whiteSpace=wrap;html=1;" parent="6DGjHL69a0HhD9LLGAxK-29" vertex="1">
          <mxGeometry y="242" width="280" height="48" as="geometry" />
        </mxCell>
        <mxCell id="6DGjHL69a0HhD9LLGAxK-58" value="+ redirect patient" style="text;strokeColor=none;fillColor=none;align=left;verticalAlign=top;spacingLeft=4;spacingRight=4;overflow=hidden;rotatable=0;points=[[0,0.5],[1,0.5]];portConstraint=eastwest;whiteSpace=wrap;html=1;" parent="6DGjHL69a0HhD9LLGAxK-29" vertex="1">
          <mxGeometry y="290" width="280" height="26" as="geometry" />
        </mxCell>
        <mxCell id="6DGjHL69a0HhD9LLGAxK-57" value="+ get avalableness() : list of days, times" style="text;strokeColor=none;fillColor=none;align=left;verticalAlign=top;spacingLeft=4;spacingRight=4;overflow=hidden;rotatable=0;points=[[0,0.5],[1,0.5]];portConstraint=eastwest;whiteSpace=wrap;html=1;" parent="6DGjHL69a0HhD9LLGAxK-29" vertex="1">
          <mxGeometry y="316" width="280" height="26" as="geometry" />
        </mxCell>
        <mxCell id="6DGjHL69a0HhD9LLGAxK-38" value="+ set appointment record (data): bool" style="text;strokeColor=none;fillColor=none;align=left;verticalAlign=top;spacingLeft=4;spacingRight=4;overflow=hidden;rotatable=0;points=[[0,0.5],[1,0.5]];portConstraint=eastwest;whiteSpace=wrap;html=1;" parent="6DGjHL69a0HhD9LLGAxK-29" vertex="1">
          <mxGeometry y="342" width="280" height="26" as="geometry" />
        </mxCell>
        <mxCell id="6DGjHL69a0HhD9LLGAxK-39" value="+ postpone appointment" style="text;strokeColor=none;fillColor=none;align=left;verticalAlign=top;spacingLeft=4;spacingRight=4;overflow=hidden;rotatable=0;points=[[0,0.5],[1,0.5]];portConstraint=eastwest;whiteSpace=wrap;html=1;" parent="6DGjHL69a0HhD9LLGAxK-29" vertex="1">
          <mxGeometry y="368" width="280" height="26" as="geometry" />
        </mxCell>
        <mxCell id="6DGjHL69a0HhD9LLGAxK-60" value="+ close appointment" style="text;strokeColor=none;fillColor=none;align=left;verticalAlign=top;spacingLeft=4;spacingRight=4;overflow=hidden;rotatable=0;points=[[0,0.5],[1,0.5]];portConstraint=eastwest;whiteSpace=wrap;html=1;" parent="6DGjHL69a0HhD9LLGAxK-29" vertex="1">
          <mxGeometry y="394" width="280" height="26" as="geometry" />
        </mxCell>
        <mxCell id="6DGjHL69a0HhD9LLGAxK-61" value="Hospitals" style="swimlane;fontStyle=1;align=center;verticalAlign=top;childLayout=stackLayout;horizontal=1;startSize=26;horizontalStack=0;resizeParent=1;resizeParentMax=0;resizeLast=0;collapsible=1;marginBottom=0;whiteSpace=wrap;html=1;" parent="1" vertex="1">
          <mxGeometry x="-520" y="480" width="320" height="294" as="geometry">
            <mxRectangle x="340" y="24" width="90" height="30" as="alternateBounds" />
          </mxGeometry>
        </mxCell>
        <mxCell id="6DGjHL69a0HhD9LLGAxK-62" value="+ name: string" style="text;strokeColor=none;fillColor=none;align=left;verticalAlign=top;spacingLeft=4;spacingRight=4;overflow=hidden;rotatable=0;points=[[0,0.5],[1,0.5]];portConstraint=eastwest;whiteSpace=wrap;html=1;" parent="6DGjHL69a0HhD9LLGAxK-61" vertex="1">
          <mxGeometry y="26" width="320" height="26" as="geometry" />
        </mxCell>
        <mxCell id="6DGjHL69a0HhD9LLGAxK-63" value="+ address: string " style="text;strokeColor=none;fillColor=none;align=left;verticalAlign=top;spacingLeft=4;spacingRight=4;overflow=hidden;rotatable=0;points=[[0,0.5],[1,0.5]];portConstraint=eastwest;whiteSpace=wrap;html=1;" parent="6DGjHL69a0HhD9LLGAxK-61" vertex="1">
          <mxGeometry y="52" width="320" height="26" as="geometry" />
        </mxCell>
        <mxCell id="6DGjHL69a0HhD9LLGAxK-135" value="+ contacts: phone number" style="text;strokeColor=none;fillColor=none;align=left;verticalAlign=top;spacingLeft=4;spacingRight=4;overflow=hidden;rotatable=0;points=[[0,0.5],[1,0.5]];portConstraint=eastwest;whiteSpace=wrap;html=1;" parent="6DGjHL69a0HhD9LLGAxK-61" vertex="1">
          <mxGeometry y="78" width="320" height="26" as="geometry" />
        </mxCell>
        <mxCell id="6DGjHL69a0HhD9LLGAxK-68" value="+ list_available doctors: vector&amp;lt;Doctor&amp;gt;" style="text;strokeColor=none;fillColor=none;align=left;verticalAlign=top;spacingLeft=4;spacingRight=4;overflow=hidden;rotatable=0;points=[[0,0.5],[1,0.5]];portConstraint=eastwest;whiteSpace=wrap;html=1;" parent="6DGjHL69a0HhD9LLGAxK-61" vertex="1">
          <mxGeometry y="104" width="320" height="26" as="geometry" />
        </mxCell>
        <mxCell id="6DGjHL69a0HhD9LLGAxK-132" value="+ client accounts: vector &amp;lt;Patient&amp;gt;" style="text;strokeColor=none;fillColor=none;align=left;verticalAlign=top;spacingLeft=4;spacingRight=4;overflow=hidden;rotatable=0;points=[[0,0.5],[1,0.5]];portConstraint=eastwest;whiteSpace=wrap;html=1;" parent="6DGjHL69a0HhD9LLGAxK-61" vertex="1">
          <mxGeometry y="130" width="320" height="26" as="geometry" />
        </mxCell>
        <mxCell id="6DGjHL69a0HhD9LLGAxK-69" value="" style="line;strokeWidth=1;fillColor=none;align=left;verticalAlign=middle;spacingTop=-1;spacingLeft=3;spacingRight=3;rotatable=0;labelPosition=right;points=[];portConstraint=eastwest;strokeColor=inherit;" parent="6DGjHL69a0HhD9LLGAxK-61" vertex="1">
          <mxGeometry y="156" width="320" height="8" as="geometry" />
        </mxCell>
        <mxCell id="6DGjHL69a0HhD9LLGAxK-72" value="+ hire / fire personel" style="text;strokeColor=none;fillColor=none;align=left;verticalAlign=top;spacingLeft=4;spacingRight=4;overflow=hidden;rotatable=0;points=[[0,0.5],[1,0.5]];portConstraint=eastwest;whiteSpace=wrap;html=1;" parent="6DGjHL69a0HhD9LLGAxK-61" vertex="1">
          <mxGeometry y="164" width="320" height="26" as="geometry" />
        </mxCell>
        <mxCell id="6DGjHL69a0HhD9LLGAxK-133" value="+ make client account " style="text;strokeColor=none;fillColor=none;align=left;verticalAlign=top;spacingLeft=4;spacingRight=4;overflow=hidden;rotatable=0;points=[[0,0.5],[1,0.5]];portConstraint=eastwest;whiteSpace=wrap;html=1;" parent="6DGjHL69a0HhD9LLGAxK-61" vertex="1">
          <mxGeometry y="190" width="320" height="26" as="geometry" />
        </mxCell>
        <mxCell id="6DGjHL69a0HhD9LLGAxK-136" value="+ provide place for appointment" style="text;strokeColor=none;fillColor=none;align=left;verticalAlign=top;spacingLeft=4;spacingRight=4;overflow=hidden;rotatable=0;points=[[0,0.5],[1,0.5]];portConstraint=eastwest;whiteSpace=wrap;html=1;" parent="6DGjHL69a0HhD9LLGAxK-61" vertex="1">
          <mxGeometry y="216" width="320" height="26" as="geometry" />
        </mxCell>
        <mxCell id="6DGjHL69a0HhD9LLGAxK-73" value="+ provide interface to make appointment (Web site)" style="text;strokeColor=none;fillColor=none;align=left;verticalAlign=top;spacingLeft=4;spacingRight=4;overflow=hidden;rotatable=0;points=[[0,0.5],[1,0.5]];portConstraint=eastwest;whiteSpace=wrap;html=1;" parent="6DGjHL69a0HhD9LLGAxK-61" vertex="1">
          <mxGeometry y="242" width="320" height="26" as="geometry" />
        </mxCell>
        <mxCell id="6DGjHL69a0HhD9LLGAxK-137" value="+ display contact forms to fill in" style="text;strokeColor=none;fillColor=none;align=left;verticalAlign=top;spacingLeft=4;spacingRight=4;overflow=hidden;rotatable=0;points=[[0,0.5],[1,0.5]];portConstraint=eastwest;whiteSpace=wrap;html=1;" parent="6DGjHL69a0HhD9LLGAxK-61" vertex="1">
          <mxGeometry y="268" width="320" height="26" as="geometry" />
        </mxCell>
        <mxCell id="6DGjHL69a0HhD9LLGAxK-93" value="Doctors" style="swimlane;fontStyle=1;align=center;verticalAlign=top;childLayout=stackLayout;horizontal=1;startSize=26;horizontalStack=0;resizeParent=1;resizeParentMax=0;resizeLast=0;collapsible=1;marginBottom=0;whiteSpace=wrap;html=1;" parent="1" vertex="1">
          <mxGeometry x="-160" y="480" width="280" height="294" as="geometry">
            <mxRectangle x="340" y="24" width="90" height="30" as="alternateBounds" />
          </mxGeometry>
        </mxCell>
        <mxCell id="6DGjHL69a0HhD9LLGAxK-94" value="+ name: string" style="text;strokeColor=none;fillColor=none;align=left;verticalAlign=top;spacingLeft=4;spacingRight=4;overflow=hidden;rotatable=0;points=[[0,0.5],[1,0.5]];portConstraint=eastwest;whiteSpace=wrap;html=1;" parent="6DGjHL69a0HhD9LLGAxK-93" vertex="1">
          <mxGeometry y="26" width="280" height="26" as="geometry" />
        </mxCell>
        <mxCell id="6DGjHL69a0HhD9LLGAxK-95" value="+ specialisation: string " style="text;strokeColor=none;fillColor=none;align=left;verticalAlign=top;spacingLeft=4;spacingRight=4;overflow=hidden;rotatable=0;points=[[0,0.5],[1,0.5]];portConstraint=eastwest;whiteSpace=wrap;html=1;" parent="6DGjHL69a0HhD9LLGAxK-93" vertex="1">
          <mxGeometry y="52" width="280" height="26" as="geometry" />
        </mxCell>
        <mxCell id="6DGjHL69a0HhD9LLGAxK-99" value="+ list_current_patients: vector&amp;lt;Patient&amp;gt;" style="text;strokeColor=none;fillColor=none;align=left;verticalAlign=top;spacingLeft=4;spacingRight=4;overflow=hidden;rotatable=0;points=[[0,0.5],[1,0.5]];portConstraint=eastwest;whiteSpace=wrap;html=1;" parent="6DGjHL69a0HhD9LLGAxK-93" vertex="1">
          <mxGeometry y="78" width="280" height="26" as="geometry" />
        </mxCell>
        <mxCell id="6DGjHL69a0HhD9LLGAxK-146" value="+ current appointments: vector &amp;lt;Appointment&amp;gt; " style="text;strokeColor=none;fillColor=none;align=left;verticalAlign=top;spacingLeft=4;spacingRight=4;overflow=hidden;rotatable=0;points=[[0,0.5],[1,0.5]];portConstraint=eastwest;whiteSpace=wrap;html=1;" parent="6DGjHL69a0HhD9LLGAxK-93" vertex="1">
          <mxGeometry y="104" width="280" height="26" as="geometry" />
        </mxCell>
        <mxCell id="6DGjHL69a0HhD9LLGAxK-100" value="" style="line;strokeWidth=1;fillColor=none;align=left;verticalAlign=middle;spacingTop=-1;spacingLeft=3;spacingRight=3;rotatable=0;labelPosition=right;points=[];portConstraint=eastwest;strokeColor=inherit;" parent="6DGjHL69a0HhD9LLGAxK-93" vertex="1">
          <mxGeometry y="130" width="280" height="8" as="geometry" />
        </mxCell>
        <mxCell id="6DGjHL69a0HhD9LLGAxK-106" value="+ add (set) appointment record (Appointment)" style="text;strokeColor=none;fillColor=none;align=left;verticalAlign=top;spacingLeft=4;spacingRight=4;overflow=hidden;rotatable=0;points=[[0,0.5],[1,0.5]];portConstraint=eastwest;whiteSpace=wrap;html=1;" parent="6DGjHL69a0HhD9LLGAxK-93" vertex="1">
          <mxGeometry y="138" width="280" height="26" as="geometry" />
        </mxCell>
        <mxCell id="6DGjHL69a0HhD9LLGAxK-107" value="+ postpone / dismiss appointment" style="text;strokeColor=none;fillColor=none;align=left;verticalAlign=top;spacingLeft=4;spacingRight=4;overflow=hidden;rotatable=0;points=[[0,0.5],[1,0.5]];portConstraint=eastwest;whiteSpace=wrap;html=1;" parent="6DGjHL69a0HhD9LLGAxK-93" vertex="1">
          <mxGeometry y="164" width="280" height="26" as="geometry" />
        </mxCell>
        <mxCell id="6DGjHL69a0HhD9LLGAxK-108" value="+ close appointment" style="text;strokeColor=none;fillColor=none;align=left;verticalAlign=top;spacingLeft=4;spacingRight=4;overflow=hidden;rotatable=0;points=[[0,0.5],[1,0.5]];portConstraint=eastwest;whiteSpace=wrap;html=1;" parent="6DGjHL69a0HhD9LLGAxK-93" vertex="1">
          <mxGeometry y="190" width="280" height="26" as="geometry" />
        </mxCell>
        <mxCell id="6DGjHL69a0HhD9LLGAxK-154" value="+ change appointment status" style="text;strokeColor=none;fillColor=none;align=left;verticalAlign=top;spacingLeft=4;spacingRight=4;overflow=hidden;rotatable=0;points=[[0,0.5],[1,0.5]];portConstraint=eastwest;whiteSpace=wrap;html=1;" parent="6DGjHL69a0HhD9LLGAxK-93" vertex="1">
          <mxGeometry y="216" width="280" height="26" as="geometry" />
        </mxCell>
        <mxCell id="6DGjHL69a0HhD9LLGAxK-109" value="+ display current appointment status list" style="text;strokeColor=none;fillColor=none;align=left;verticalAlign=top;spacingLeft=4;spacingRight=4;overflow=hidden;rotatable=0;points=[[0,0.5],[1,0.5]];portConstraint=eastwest;whiteSpace=wrap;html=1;" parent="6DGjHL69a0HhD9LLGAxK-93" vertex="1">
          <mxGeometry y="242" width="280" height="26" as="geometry" />
        </mxCell>
        <mxCell id="6DGjHL69a0HhD9LLGAxK-149" value="+ get Doctor&#39;s availability" style="text;strokeColor=none;fillColor=none;align=left;verticalAlign=top;spacingLeft=4;spacingRight=4;overflow=hidden;rotatable=0;points=[[0,0.5],[1,0.5]];portConstraint=eastwest;whiteSpace=wrap;html=1;" parent="6DGjHL69a0HhD9LLGAxK-93" vertex="1">
          <mxGeometry y="268" width="280" height="26" as="geometry" />
        </mxCell>
        <mxCell id="6DGjHL69a0HhD9LLGAxK-110" value="Appointments" style="swimlane;fontStyle=1;align=center;verticalAlign=top;childLayout=stackLayout;horizontal=1;startSize=26;horizontalStack=0;resizeParent=1;resizeParentMax=0;resizeLast=0;collapsible=1;marginBottom=0;whiteSpace=wrap;html=1;" parent="1" vertex="1">
          <mxGeometry x="160" y="480" width="320" height="346" as="geometry">
            <mxRectangle x="340" y="24" width="90" height="30" as="alternateBounds" />
          </mxGeometry>
        </mxCell>
        <mxCell id="6DGjHL69a0HhD9LLGAxK-117" value="+ Patient&#39;s name: Patient" style="text;strokeColor=none;fillColor=none;align=left;verticalAlign=top;spacingLeft=4;spacingRight=4;overflow=hidden;rotatable=0;points=[[0,0.5],[1,0.5]];portConstraint=eastwest;whiteSpace=wrap;html=1;" parent="6DGjHL69a0HhD9LLGAxK-110" vertex="1">
          <mxGeometry y="26" width="320" height="26" as="geometry" />
        </mxCell>
        <mxCell id="6DGjHL69a0HhD9LLGAxK-111" value="+ Doctor&#39;s name: Doctor" style="text;strokeColor=none;fillColor=none;align=left;verticalAlign=top;spacingLeft=4;spacingRight=4;overflow=hidden;rotatable=0;points=[[0,0.5],[1,0.5]];portConstraint=eastwest;whiteSpace=wrap;html=1;" parent="6DGjHL69a0HhD9LLGAxK-110" vertex="1">
          <mxGeometry y="52" width="320" height="26" as="geometry" />
        </mxCell>
        <mxCell id="6DGjHL69a0HhD9LLGAxK-113" value="+ Appointment Date: day&amp;amp;time" style="text;strokeColor=none;fillColor=none;align=left;verticalAlign=top;spacingLeft=4;spacingRight=4;overflow=hidden;rotatable=0;points=[[0,0.5],[1,0.5]];portConstraint=eastwest;whiteSpace=wrap;html=1;" parent="6DGjHL69a0HhD9LLGAxK-110" vertex="1">
          <mxGeometry y="78" width="320" height="26" as="geometry" />
        </mxCell>
        <mxCell id="6DGjHL69a0HhD9LLGAxK-112" value="+ Symptoms: string " style="text;strokeColor=none;fillColor=none;align=left;verticalAlign=top;spacingLeft=4;spacingRight=4;overflow=hidden;rotatable=0;points=[[0,0.5],[1,0.5]];portConstraint=eastwest;whiteSpace=wrap;html=1;" parent="6DGjHL69a0HhD9LLGAxK-110" vertex="1">
          <mxGeometry y="104" width="320" height="26" as="geometry" />
        </mxCell>
        <mxCell id="6DGjHL69a0HhD9LLGAxK-145" value="+ Current state: enum (planned, in progress, closed)" style="text;strokeColor=none;fillColor=none;align=left;verticalAlign=top;spacingLeft=4;spacingRight=4;overflow=hidden;rotatable=0;points=[[0,0.5],[1,0.5]];portConstraint=eastwest;whiteSpace=wrap;html=1;" parent="6DGjHL69a0HhD9LLGAxK-110" vertex="1">
          <mxGeometry y="130" width="320" height="26" as="geometry" />
        </mxCell>
        <mxCell id="6DGjHL69a0HhD9LLGAxK-114" value="" style="line;strokeWidth=1;fillColor=none;align=left;verticalAlign=middle;spacingTop=-1;spacingLeft=3;spacingRight=3;rotatable=0;labelPosition=right;points=[];portConstraint=eastwest;strokeColor=inherit;" parent="6DGjHL69a0HhD9LLGAxK-110" vertex="1">
          <mxGeometry y="156" width="320" height="8" as="geometry" />
        </mxCell>
        <mxCell id="6DGjHL69a0HhD9LLGAxK-115" value="+ new appointment (constructor)" style="text;strokeColor=none;fillColor=none;align=left;verticalAlign=top;spacingLeft=4;spacingRight=4;overflow=hidden;rotatable=0;points=[[0,0.5],[1,0.5]];portConstraint=eastwest;whiteSpace=wrap;html=1;" parent="6DGjHL69a0HhD9LLGAxK-110" vertex="1">
          <mxGeometry y="164" width="320" height="26" as="geometry" />
        </mxCell>
        <mxCell id="6DGjHL69a0HhD9LLGAxK-151" value="+ choose (set) the Doctor" style="text;strokeColor=none;fillColor=none;align=left;verticalAlign=top;spacingLeft=4;spacingRight=4;overflow=hidden;rotatable=0;points=[[0,0.5],[1,0.5]];portConstraint=eastwest;whiteSpace=wrap;html=1;" parent="6DGjHL69a0HhD9LLGAxK-110" vertex="1">
          <mxGeometry y="190" width="320" height="26" as="geometry" />
        </mxCell>
        <mxCell id="6DGjHL69a0HhD9LLGAxK-152" value="+ choose (set) Appointment&#39;s Date" style="text;strokeColor=none;fillColor=none;align=left;verticalAlign=top;spacingLeft=4;spacingRight=4;overflow=hidden;rotatable=0;points=[[0,0.5],[1,0.5]];portConstraint=eastwest;whiteSpace=wrap;html=1;" parent="6DGjHL69a0HhD9LLGAxK-110" vertex="1">
          <mxGeometry y="216" width="320" height="26" as="geometry" />
        </mxCell>
        <mxCell id="6DGjHL69a0HhD9LLGAxK-153" value="+ write (set) symptoms" style="text;strokeColor=none;fillColor=none;align=left;verticalAlign=top;spacingLeft=4;spacingRight=4;overflow=hidden;rotatable=0;points=[[0,0.5],[1,0.5]];portConstraint=eastwest;whiteSpace=wrap;html=1;" parent="6DGjHL69a0HhD9LLGAxK-110" vertex="1">
          <mxGeometry y="242" width="320" height="26" as="geometry" />
        </mxCell>
        <mxCell id="6DGjHL69a0HhD9LLGAxK-116" value="+ save appointment" style="text;strokeColor=none;fillColor=none;align=left;verticalAlign=top;spacingLeft=4;spacingRight=4;overflow=hidden;rotatable=0;points=[[0,0.5],[1,0.5]];portConstraint=eastwest;whiteSpace=wrap;html=1;" parent="6DGjHL69a0HhD9LLGAxK-110" vertex="1">
          <mxGeometry y="268" width="320" height="26" as="geometry" />
        </mxCell>
        <mxCell id="6DGjHL69a0HhD9LLGAxK-155" value="+ validate correctness of filled form" style="text;strokeColor=none;fillColor=none;align=left;verticalAlign=top;spacingLeft=4;spacingRight=4;overflow=hidden;rotatable=0;points=[[0,0.5],[1,0.5]];portConstraint=eastwest;whiteSpace=wrap;html=1;" parent="6DGjHL69a0HhD9LLGAxK-110" vertex="1">
          <mxGeometry y="294" width="320" height="26" as="geometry" />
        </mxCell>
        <mxCell id="6DGjHL69a0HhD9LLGAxK-118" value="+ correct appointment" style="text;strokeColor=none;fillColor=none;align=left;verticalAlign=top;spacingLeft=4;spacingRight=4;overflow=hidden;rotatable=0;points=[[0,0.5],[1,0.5]];portConstraint=eastwest;whiteSpace=wrap;html=1;" parent="6DGjHL69a0HhD9LLGAxK-110" vertex="1">
          <mxGeometry y="320" width="320" height="26" as="geometry" />
        </mxCell>
        <mxCell id="6DGjHL69a0HhD9LLGAxK-121" value="Patients" style="swimlane;fontStyle=1;align=center;verticalAlign=top;childLayout=stackLayout;horizontal=1;startSize=26;horizontalStack=0;resizeParent=1;resizeParentMax=0;resizeLast=0;collapsible=1;marginBottom=0;whiteSpace=wrap;html=1;" parent="1" vertex="1">
          <mxGeometry x="520" y="480" width="280" height="320" as="geometry">
            <mxRectangle x="340" y="24" width="90" height="30" as="alternateBounds" />
          </mxGeometry>
        </mxCell>
        <mxCell id="6DGjHL69a0HhD9LLGAxK-122" value="+ name: string" style="text;strokeColor=none;fillColor=none;align=left;verticalAlign=top;spacingLeft=4;spacingRight=4;overflow=hidden;rotatable=0;points=[[0,0.5],[1,0.5]];portConstraint=eastwest;whiteSpace=wrap;html=1;" parent="6DGjHL69a0HhD9LLGAxK-121" vertex="1">
          <mxGeometry y="26" width="280" height="26" as="geometry" />
        </mxCell>
        <mxCell id="6DGjHL69a0HhD9LLGAxK-123" value="+ date of birth " style="text;strokeColor=none;fillColor=none;align=left;verticalAlign=top;spacingLeft=4;spacingRight=4;overflow=hidden;rotatable=0;points=[[0,0.5],[1,0.5]];portConstraint=eastwest;whiteSpace=wrap;html=1;" parent="6DGjHL69a0HhD9LLGAxK-121" vertex="1">
          <mxGeometry y="52" width="280" height="26" as="geometry" />
        </mxCell>
        <mxCell id="6DGjHL69a0HhD9LLGAxK-140" value="+ contacts: phone number / e-mail" style="text;strokeColor=none;fillColor=none;align=left;verticalAlign=top;spacingLeft=4;spacingRight=4;overflow=hidden;rotatable=0;points=[[0,0.5],[1,0.5]];portConstraint=eastwest;whiteSpace=wrap;html=1;" parent="6DGjHL69a0HhD9LLGAxK-121" vertex="1">
          <mxGeometry y="78" width="280" height="26" as="geometry" />
        </mxCell>
        <mxCell id="6DGjHL69a0HhD9LLGAxK-134" value="+ illness history" style="text;strokeColor=none;fillColor=none;align=left;verticalAlign=top;spacingLeft=4;spacingRight=4;overflow=hidden;rotatable=0;points=[[0,0.5],[1,0.5]];portConstraint=eastwest;whiteSpace=wrap;html=1;" parent="6DGjHL69a0HhD9LLGAxK-121" vertex="1">
          <mxGeometry y="104" width="280" height="26" as="geometry" />
        </mxCell>
        <mxCell id="6DGjHL69a0HhD9LLGAxK-124" value="+ current appointments: vector &amp;lt;Appointment&amp;gt; " style="text;strokeColor=none;fillColor=none;align=left;verticalAlign=top;spacingLeft=4;spacingRight=4;overflow=hidden;rotatable=0;points=[[0,0.5],[1,0.5]];portConstraint=eastwest;whiteSpace=wrap;html=1;" parent="6DGjHL69a0HhD9LLGAxK-121" vertex="1">
          <mxGeometry y="130" width="280" height="26" as="geometry" />
        </mxCell>
        <mxCell id="6DGjHL69a0HhD9LLGAxK-126" value="" style="line;strokeWidth=1;fillColor=none;align=left;verticalAlign=middle;spacingTop=-1;spacingLeft=3;spacingRight=3;rotatable=0;labelPosition=right;points=[];portConstraint=eastwest;strokeColor=inherit;" parent="6DGjHL69a0HhD9LLGAxK-121" vertex="1">
          <mxGeometry y="156" width="280" height="8" as="geometry" />
        </mxCell>
        <mxCell id="6DGjHL69a0HhD9LLGAxK-141" value="+ create an account" style="text;strokeColor=none;fillColor=none;align=left;verticalAlign=top;spacingLeft=4;spacingRight=4;overflow=hidden;rotatable=0;points=[[0,0.5],[1,0.5]];portConstraint=eastwest;whiteSpace=wrap;html=1;" parent="6DGjHL69a0HhD9LLGAxK-121" vertex="1">
          <mxGeometry y="164" width="280" height="26" as="geometry" />
        </mxCell>
        <mxCell id="6DGjHL69a0HhD9LLGAxK-142" value="+ create appointment " style="text;strokeColor=none;fillColor=none;align=left;verticalAlign=top;spacingLeft=4;spacingRight=4;overflow=hidden;rotatable=0;points=[[0,0.5],[1,0.5]];portConstraint=eastwest;whiteSpace=wrap;html=1;" parent="6DGjHL69a0HhD9LLGAxK-121" vertex="1">
          <mxGeometry y="190" width="280" height="26" as="geometry" />
        </mxCell>
        <mxCell id="6DGjHL69a0HhD9LLGAxK-148" value="+ send appointment request" style="text;strokeColor=none;fillColor=none;align=left;verticalAlign=top;spacingLeft=4;spacingRight=4;overflow=hidden;rotatable=0;points=[[0,0.5],[1,0.5]];portConstraint=eastwest;whiteSpace=wrap;html=1;" parent="6DGjHL69a0HhD9LLGAxK-121" vertex="1">
          <mxGeometry y="216" width="280" height="26" as="geometry" />
        </mxCell>
        <mxCell id="6DGjHL69a0HhD9LLGAxK-128" value="+ postpone appointment" style="text;strokeColor=none;fillColor=none;align=left;verticalAlign=top;spacingLeft=4;spacingRight=4;overflow=hidden;rotatable=0;points=[[0,0.5],[1,0.5]];portConstraint=eastwest;whiteSpace=wrap;html=1;" parent="6DGjHL69a0HhD9LLGAxK-121" vertex="1">
          <mxGeometry y="242" width="280" height="26" as="geometry" />
        </mxCell>
        <mxCell id="6DGjHL69a0HhD9LLGAxK-127" value="+ delete appointment " style="text;strokeColor=none;fillColor=none;align=left;verticalAlign=top;spacingLeft=4;spacingRight=4;overflow=hidden;rotatable=0;points=[[0,0.5],[1,0.5]];portConstraint=eastwest;whiteSpace=wrap;html=1;" parent="6DGjHL69a0HhD9LLGAxK-121" vertex="1">
          <mxGeometry y="268" width="280" height="26" as="geometry" />
        </mxCell>
        <mxCell id="6DGjHL69a0HhD9LLGAxK-131" value="+ display current appointment status list" style="text;strokeColor=none;fillColor=none;align=left;verticalAlign=top;spacingLeft=4;spacingRight=4;overflow=hidden;rotatable=0;points=[[0,0.5],[1,0.5]];portConstraint=eastwest;whiteSpace=wrap;html=1;" parent="6DGjHL69a0HhD9LLGAxK-121" vertex="1">
          <mxGeometry y="294" width="280" height="26" as="geometry" />
        </mxCell>
        <mxCell id="6DGjHL69a0HhD9LLGAxK-138" value="" style="rounded=0;whiteSpace=wrap;html=1;fillColor=#D4E1F5;" parent="1" vertex="1">
          <mxGeometry x="-470" y="440" width="1200" height="30" as="geometry" />
        </mxCell>
        <mxCell id="6DGjHL69a0HhD9LLGAxK-139" value="Working abstructions for making appointment record in hospitals" style="text;html=1;strokeColor=none;fillColor=#D4E1F5;align=center;verticalAlign=middle;whiteSpace=wrap;rounded=0;" parent="1" vertex="1">
          <mxGeometry x="-460" y="446" width="1190" height="20" as="geometry" />
        </mxCell>
        <mxCell id="wdqz7naByt3iV3KVul7O-2" value="Hospital" style="swimlane;fontStyle=0;childLayout=stackLayout;horizontal=1;startSize=30;horizontalStack=0;resizeParent=1;resizeParentMax=0;resizeLast=0;collapsible=1;marginBottom=0;whiteSpace=wrap;html=1;" vertex="1" parent="1">
          <mxGeometry y="1030" width="140" height="60" as="geometry" />
        </mxCell>
        <mxCell id="wdqz7naByt3iV3KVul7O-3" value="Item 1" style="text;strokeColor=none;fillColor=none;align=left;verticalAlign=middle;spacingLeft=4;spacingRight=4;overflow=hidden;points=[[0,0.5],[1,0.5]];portConstraint=eastwest;rotatable=0;whiteSpace=wrap;html=1;" vertex="1" parent="wdqz7naByt3iV3KVul7O-2">
          <mxGeometry y="30" width="140" height="30" as="geometry" />
        </mxCell>
        <mxCell id="wdqz7naByt3iV3KVul7O-6" value="Personnel" style="swimlane;fontStyle=0;childLayout=stackLayout;horizontal=1;startSize=30;horizontalStack=0;resizeParent=1;resizeParentMax=0;resizeLast=0;collapsible=1;marginBottom=0;whiteSpace=wrap;html=1;" vertex="1" parent="1">
          <mxGeometry x="450" y="1210" width="140" height="60" as="geometry" />
        </mxCell>
        <mxCell id="wdqz7naByt3iV3KVul7O-7" value="Item 1" style="text;strokeColor=none;fillColor=none;align=left;verticalAlign=middle;spacingLeft=4;spacingRight=4;overflow=hidden;points=[[0,0.5],[1,0.5]];portConstraint=eastwest;rotatable=0;whiteSpace=wrap;html=1;" vertex="1" parent="wdqz7naByt3iV3KVul7O-6">
          <mxGeometry y="30" width="140" height="30" as="geometry" />
        </mxCell>
        <mxCell id="wdqz7naByt3iV3KVul7O-10" value="Administrator" style="swimlane;fontStyle=0;childLayout=stackLayout;horizontal=1;startSize=30;horizontalStack=0;resizeParent=1;resizeParentMax=0;resizeLast=0;collapsible=1;marginBottom=0;whiteSpace=wrap;html=1;" vertex="1" parent="1">
          <mxGeometry x="230" y="1425" width="180" height="120" as="geometry" />
        </mxCell>
        <mxCell id="wdqz7naByt3iV3KVul7O-11" value="+ coordinate schedule " style="text;strokeColor=none;fillColor=none;align=left;verticalAlign=middle;spacingLeft=4;spacingRight=4;overflow=hidden;points=[[0,0.5],[1,0.5]];portConstraint=eastwest;rotatable=0;whiteSpace=wrap;html=1;" vertex="1" parent="wdqz7naByt3iV3KVul7O-10">
          <mxGeometry y="30" width="180" height="30" as="geometry" />
        </mxCell>
        <mxCell id="wdqz7naByt3iV3KVul7O-12" value="+ arrange the appointment" style="text;strokeColor=none;fillColor=none;align=left;verticalAlign=middle;spacingLeft=4;spacingRight=4;overflow=hidden;points=[[0,0.5],[1,0.5]];portConstraint=eastwest;rotatable=0;whiteSpace=wrap;html=1;" vertex="1" parent="wdqz7naByt3iV3KVul7O-10">
          <mxGeometry y="60" width="180" height="30" as="geometry" />
        </mxCell>
        <mxCell id="wdqz7naByt3iV3KVul7O-13" value="+ operate with aplication " style="text;strokeColor=none;fillColor=none;align=left;verticalAlign=middle;spacingLeft=4;spacingRight=4;overflow=hidden;points=[[0,0.5],[1,0.5]];portConstraint=eastwest;rotatable=0;whiteSpace=wrap;html=1;" vertex="1" parent="wdqz7naByt3iV3KVul7O-10">
          <mxGeometry y="90" width="180" height="30" as="geometry" />
        </mxCell>
        <mxCell id="wdqz7naByt3iV3KVul7O-14" value="Doctor" style="swimlane;fontStyle=0;childLayout=stackLayout;horizontal=1;startSize=30;horizontalStack=0;resizeParent=1;resizeParentMax=0;resizeLast=0;collapsible=1;marginBottom=0;whiteSpace=wrap;html=1;" vertex="1" parent="1">
          <mxGeometry x="630" y="1425" width="140" height="60" as="geometry" />
        </mxCell>
        <mxCell id="wdqz7naByt3iV3KVul7O-15" value="+ provide consultation" style="text;strokeColor=none;fillColor=none;align=left;verticalAlign=middle;spacingLeft=4;spacingRight=4;overflow=hidden;points=[[0,0.5],[1,0.5]];portConstraint=eastwest;rotatable=0;whiteSpace=wrap;html=1;" vertex="1" parent="wdqz7naByt3iV3KVul7O-14">
          <mxGeometry y="30" width="140" height="30" as="geometry" />
        </mxCell>
        <mxCell id="wdqz7naByt3iV3KVul7O-25" value="&lt;i&gt;&amp;lt;&amp;lt;Web (UI)&amp;gt;&amp;gt;&lt;/i&gt;" style="swimlane;fontStyle=0;childLayout=stackLayout;horizontal=1;startSize=30;horizontalStack=0;resizeParent=1;resizeParentMax=0;resizeLast=0;collapsible=1;marginBottom=0;whiteSpace=wrap;html=1;" vertex="1" parent="1">
          <mxGeometry x="-290" y="1175" width="190" height="90" as="geometry" />
        </mxCell>
        <mxCell id="wdqz7naByt3iV3KVul7O-26" value="+ provide application form" style="text;strokeColor=none;fillColor=none;align=left;verticalAlign=middle;spacingLeft=4;spacingRight=4;overflow=hidden;points=[[0,0.5],[1,0.5]];portConstraint=eastwest;rotatable=0;whiteSpace=wrap;html=1;" vertex="1" parent="wdqz7naByt3iV3KVul7O-25">
          <mxGeometry y="30" width="190" height="30" as="geometry" />
        </mxCell>
        <mxCell id="wdqz7naByt3iV3KVul7O-27" value="+ provide dynamic schedule" style="text;strokeColor=none;fillColor=none;align=left;verticalAlign=middle;spacingLeft=4;spacingRight=4;overflow=hidden;points=[[0,0.5],[1,0.5]];portConstraint=eastwest;rotatable=0;whiteSpace=wrap;html=1;" vertex="1" parent="wdqz7naByt3iV3KVul7O-25">
          <mxGeometry y="60" width="190" height="30" as="geometry" />
        </mxCell>
        <mxCell id="wdqz7naByt3iV3KVul7O-30" value="Schedule of appointment" style="swimlane;fontStyle=0;childLayout=stackLayout;horizontal=1;startSize=30;horizontalStack=0;resizeParent=1;resizeParentMax=0;resizeLast=0;collapsible=1;marginBottom=0;whiteSpace=wrap;html=1;" vertex="1" parent="1">
          <mxGeometry x="-460" y="1380" width="190" height="120" as="geometry" />
        </mxCell>
        <mxCell id="wdqz7naByt3iV3KVul7O-31" value="+ set schedule" style="text;strokeColor=none;fillColor=none;align=left;verticalAlign=middle;spacingLeft=4;spacingRight=4;overflow=hidden;points=[[0,0.5],[1,0.5]];portConstraint=eastwest;rotatable=0;whiteSpace=wrap;html=1;" vertex="1" parent="wdqz7naByt3iV3KVul7O-30">
          <mxGeometry y="30" width="190" height="30" as="geometry" />
        </mxCell>
        <mxCell id="wdqz7naByt3iV3KVul7O-32" value="+ change schedule" style="text;strokeColor=none;fillColor=none;align=left;verticalAlign=middle;spacingLeft=4;spacingRight=4;overflow=hidden;points=[[0,0.5],[1,0.5]];portConstraint=eastwest;rotatable=0;whiteSpace=wrap;html=1;" vertex="1" parent="wdqz7naByt3iV3KVul7O-30">
          <mxGeometry y="60" width="190" height="30" as="geometry" />
        </mxCell>
        <mxCell id="wdqz7naByt3iV3KVul7O-33" value="+ show schedule" style="text;strokeColor=none;fillColor=none;align=left;verticalAlign=middle;spacingLeft=4;spacingRight=4;overflow=hidden;points=[[0,0.5],[1,0.5]];portConstraint=eastwest;rotatable=0;whiteSpace=wrap;html=1;" vertex="1" parent="wdqz7naByt3iV3KVul7O-30">
          <mxGeometry y="90" width="190" height="30" as="geometry" />
        </mxCell>
        <mxCell id="wdqz7naByt3iV3KVul7O-35" style="edgeStyle=orthogonalEdgeStyle;rounded=0;orthogonalLoop=1;jettySize=auto;html=1;entryX=0;entryY=0.133;entryDx=0;entryDy=0;entryPerimeter=0;" edge="1" parent="1" source="wdqz7naByt3iV3KVul7O-34" target="wdqz7naByt3iV3KVul7O-32">
          <mxGeometry relative="1" as="geometry" />
        </mxCell>
        <mxCell id="wdqz7naByt3iV3KVul7O-34" value="DB" style="shape=cylinder3;whiteSpace=wrap;html=1;boundedLbl=1;backgroundOutline=1;size=15;" vertex="1" parent="1">
          <mxGeometry x="-610" y="1320" width="60" height="80" as="geometry" />
        </mxCell>
        <mxCell id="wdqz7naByt3iV3KVul7O-36" value="Application Form" style="swimlane;fontStyle=0;childLayout=stackLayout;horizontal=1;startSize=30;horizontalStack=0;resizeParent=1;resizeParentMax=0;resizeLast=0;collapsible=1;marginBottom=0;whiteSpace=wrap;html=1;" vertex="1" parent="1">
          <mxGeometry x="-120" y="1380" width="180" height="120" as="geometry" />
        </mxCell>
        <mxCell id="wdqz7naByt3iV3KVul7O-37" value="+ fill in the form" style="text;strokeColor=none;fillColor=none;align=left;verticalAlign=middle;spacingLeft=4;spacingRight=4;overflow=hidden;points=[[0,0.5],[1,0.5]];portConstraint=eastwest;rotatable=0;whiteSpace=wrap;html=1;" vertex="1" parent="wdqz7naByt3iV3KVul7O-36">
          <mxGeometry y="30" width="180" height="30" as="geometry" />
        </mxCell>
        <mxCell id="wdqz7naByt3iV3KVul7O-38" value="+ add application to schedule" style="text;strokeColor=none;fillColor=none;align=left;verticalAlign=middle;spacingLeft=4;spacingRight=4;overflow=hidden;points=[[0,0.5],[1,0.5]];portConstraint=eastwest;rotatable=0;whiteSpace=wrap;html=1;" vertex="1" parent="wdqz7naByt3iV3KVul7O-36">
          <mxGeometry y="60" width="180" height="30" as="geometry" />
        </mxCell>
        <mxCell id="wdqz7naByt3iV3KVul7O-39" value="+ show application form" style="text;strokeColor=none;fillColor=none;align=left;verticalAlign=middle;spacingLeft=4;spacingRight=4;overflow=hidden;points=[[0,0.5],[1,0.5]];portConstraint=eastwest;rotatable=0;whiteSpace=wrap;html=1;" vertex="1" parent="wdqz7naByt3iV3KVul7O-36">
          <mxGeometry y="90" width="180" height="30" as="geometry" />
        </mxCell>
        <mxCell id="wdqz7naByt3iV3KVul7O-40" value="" style="endArrow=block;dashed=1;endFill=0;endSize=12;html=1;rounded=0;entryX=1.007;entryY=0.133;entryDx=0;entryDy=0;entryPerimeter=0;" edge="1" parent="1" target="wdqz7naByt3iV3KVul7O-27">
          <mxGeometry width="160" relative="1" as="geometry">
            <mxPoint x="-40" y="1380" as="sourcePoint" />
            <mxPoint x="170" y="1450" as="targetPoint" />
            <Array as="points">
              <mxPoint x="-40" y="1239" />
            </Array>
          </mxGeometry>
        </mxCell>
        <mxCell id="wdqz7naByt3iV3KVul7O-41" value="" style="endArrow=block;dashed=1;endFill=0;endSize=12;html=1;rounded=0;entryX=-0.014;entryY=0.133;entryDx=0;entryDy=0;entryPerimeter=0;exitX=0.5;exitY=0;exitDx=0;exitDy=0;" edge="1" parent="1" source="wdqz7naByt3iV3KVul7O-30" target="wdqz7naByt3iV3KVul7O-27">
          <mxGeometry width="160" relative="1" as="geometry">
            <mxPoint x="-440" y="1310" as="sourcePoint" />
            <mxPoint x="-280" y="1310" as="targetPoint" />
            <Array as="points">
              <mxPoint x="-365" y="1240" />
            </Array>
          </mxGeometry>
        </mxCell>
        <mxCell id="wdqz7naByt3iV3KVul7O-42" value="Patient" style="swimlane;fontStyle=0;childLayout=stackLayout;horizontal=1;startSize=30;horizontalStack=0;resizeParent=1;resizeParentMax=0;resizeLast=0;collapsible=1;marginBottom=0;whiteSpace=wrap;html=1;" vertex="1" parent="1">
          <mxGeometry x="60" y="1610" width="170" height="120" as="geometry" />
        </mxCell>
        <mxCell id="wdqz7naByt3iV3KVul7O-43" value="+ create application" style="text;strokeColor=none;fillColor=none;align=left;verticalAlign=middle;spacingLeft=4;spacingRight=4;overflow=hidden;points=[[0,0.5],[1,0.5]];portConstraint=eastwest;rotatable=0;whiteSpace=wrap;html=1;" vertex="1" parent="wdqz7naByt3iV3KVul7O-42">
          <mxGeometry y="30" width="170" height="30" as="geometry" />
        </mxCell>
        <mxCell id="wdqz7naByt3iV3KVul7O-44" value="+ correct application" style="text;strokeColor=none;fillColor=none;align=left;verticalAlign=middle;spacingLeft=4;spacingRight=4;overflow=hidden;points=[[0,0.5],[1,0.5]];portConstraint=eastwest;rotatable=0;whiteSpace=wrap;html=1;" vertex="1" parent="wdqz7naByt3iV3KVul7O-42">
          <mxGeometry y="60" width="170" height="30" as="geometry" />
        </mxCell>
        <mxCell id="wdqz7naByt3iV3KVul7O-77" value="+ attend the consultation" style="text;strokeColor=none;fillColor=none;align=left;verticalAlign=middle;spacingLeft=4;spacingRight=4;overflow=hidden;points=[[0,0.5],[1,0.5]];portConstraint=eastwest;rotatable=0;whiteSpace=wrap;html=1;" vertex="1" parent="wdqz7naByt3iV3KVul7O-42">
          <mxGeometry y="90" width="170" height="30" as="geometry" />
        </mxCell>
        <mxCell id="wdqz7naByt3iV3KVul7O-47" value="" style="endArrow=block;endSize=16;endFill=0;html=1;rounded=0;exitX=0.606;exitY=0.008;exitDx=0;exitDy=0;entryX=0;entryY=0.167;entryDx=0;entryDy=0;entryPerimeter=0;exitPerimeter=0;" edge="1" parent="1" source="wdqz7naByt3iV3KVul7O-10">
          <mxGeometry width="160" relative="1" as="geometry">
            <mxPoint x="440" y="1420" as="sourcePoint" />
            <mxPoint x="450" y="1240.01" as="targetPoint" />
            <Array as="points">
              <mxPoint x="340" y="1240" />
            </Array>
          </mxGeometry>
        </mxCell>
        <mxCell id="wdqz7naByt3iV3KVul7O-48" value="" style="endArrow=block;endSize=16;endFill=0;html=1;rounded=0;exitX=0.5;exitY=0;exitDx=0;exitDy=0;entryX=1.007;entryY=0;entryDx=0;entryDy=0;entryPerimeter=0;" edge="1" parent="1" source="wdqz7naByt3iV3KVul7O-14">
          <mxGeometry width="160" relative="1" as="geometry">
            <mxPoint x="667" y="1370" as="sourcePoint" />
            <mxPoint x="590.98" y="1235" as="targetPoint" />
            <Array as="points">
              <mxPoint x="700" y="1235" />
            </Array>
          </mxGeometry>
        </mxCell>
        <mxCell id="wdqz7naByt3iV3KVul7O-52" value="" style="endArrow=diamondThin;endFill=1;endSize=24;html=1;rounded=0;exitX=0.437;exitY=1.033;exitDx=0;exitDy=0;exitPerimeter=0;entryX=0.564;entryY=1;entryDx=0;entryDy=0;entryPerimeter=0;" edge="1" parent="1" source="wdqz7naByt3iV3KVul7O-33" target="wdqz7naByt3iV3KVul7O-15">
          <mxGeometry width="160" relative="1" as="geometry">
            <mxPoint x="130" y="1360" as="sourcePoint" />
            <mxPoint x="708.96" y="1520.0100000000002" as="targetPoint" />
            <Array as="points">
              <mxPoint x="-377" y="1880" />
              <mxPoint x="90" y="1880" />
              <mxPoint x="710" y="1880" />
            </Array>
          </mxGeometry>
        </mxCell>
        <mxCell id="wdqz7naByt3iV3KVul7O-51" value="" style="endArrow=diamondThin;endFill=1;endSize=24;html=1;rounded=0;entryX=0;entryY=0.5;entryDx=0;entryDy=0;exitX=0.461;exitY=1;exitDx=0;exitDy=0;exitPerimeter=0;" edge="1" parent="1" source="wdqz7naByt3iV3KVul7O-39" target="wdqz7naByt3iV3KVul7O-44">
          <mxGeometry width="160" relative="1" as="geometry">
            <mxPoint x="-190" y="1570" as="sourcePoint" />
            <mxPoint x="-30" y="1570" as="targetPoint" />
            <Array as="points">
              <mxPoint x="-36" y="1685" />
            </Array>
          </mxGeometry>
        </mxCell>
        <mxCell id="wdqz7naByt3iV3KVul7O-55" value="" style="endArrow=block;startArrow=block;endFill=1;startFill=1;html=1;rounded=0;entryX=-0.021;entryY=0.1;entryDx=0;entryDy=0;entryPerimeter=0;" edge="1" parent="1">
          <mxGeometry width="160" relative="1" as="geometry">
            <mxPoint x="230" y="1662" as="sourcePoint" />
            <mxPoint x="627.06" y="1480" as="targetPoint" />
            <Array as="points">
              <mxPoint x="520" y="1662" />
              <mxPoint x="520" y="1480" />
            </Array>
          </mxGeometry>
        </mxCell>
        <mxCell id="wdqz7naByt3iV3KVul7O-57" value="Relation" style="endArrow=open;html=1;endSize=12;startArrow=diamondThin;startSize=14;startFill=0;edgeStyle=orthogonalEdgeStyle;rounded=0;exitX=0.75;exitY=1;exitDx=0;exitDy=0;" edge="1" parent="1" source="wdqz7naByt3iV3KVul7O-2">
          <mxGeometry relative="1" as="geometry">
            <mxPoint x="100" y="1220" as="sourcePoint" />
            <mxPoint x="105" y="1610" as="targetPoint" />
            <Array as="points">
              <mxPoint x="105" y="1610" />
            </Array>
          </mxGeometry>
        </mxCell>
        <mxCell id="wdqz7naByt3iV3KVul7O-58" value="0..n" style="edgeLabel;resizable=0;html=1;align=left;verticalAlign=top;" connectable="0" vertex="1" parent="wdqz7naByt3iV3KVul7O-57">
          <mxGeometry x="-1" relative="1" as="geometry" />
        </mxCell>
        <mxCell id="wdqz7naByt3iV3KVul7O-59" value="1" style="edgeLabel;resizable=0;html=1;align=right;verticalAlign=top;" connectable="0" vertex="1" parent="wdqz7naByt3iV3KVul7O-57">
          <mxGeometry x="1" relative="1" as="geometry">
            <mxPoint x="-15" y="-30" as="offset" />
          </mxGeometry>
        </mxCell>
        <mxCell id="wdqz7naByt3iV3KVul7O-60" value="" style="endArrow=diamondThin;endFill=1;endSize=24;html=1;rounded=0;" edge="1" parent="1">
          <mxGeometry width="160" relative="1" as="geometry">
            <mxPoint x="-160" y="1170" as="sourcePoint" />
            <mxPoint y="1060" as="targetPoint" />
            <Array as="points">
              <mxPoint x="-160" y="1060" />
            </Array>
          </mxGeometry>
        </mxCell>
        <mxCell id="wdqz7naByt3iV3KVul7O-61" value="1" style="text;html=1;align=center;verticalAlign=middle;resizable=0;points=[];autosize=1;strokeColor=none;fillColor=none;" vertex="1" parent="1">
          <mxGeometry x="230" y="1638" width="30" height="30" as="geometry" />
        </mxCell>
        <mxCell id="wdqz7naByt3iV3KVul7O-62" value="*" style="text;html=1;align=center;verticalAlign=middle;resizable=0;points=[];autosize=1;strokeColor=none;fillColor=none;" vertex="1" parent="1">
          <mxGeometry x="230" y="1680" width="30" height="30" as="geometry" />
        </mxCell>
        <mxCell id="wdqz7naByt3iV3KVul7O-63" value="*" style="text;html=1;align=center;verticalAlign=middle;resizable=0;points=[];autosize=1;strokeColor=none;fillColor=none;" vertex="1" parent="1">
          <mxGeometry x="605" y="1458" width="30" height="30" as="geometry" />
        </mxCell>
        <mxCell id="wdqz7naByt3iV3KVul7O-64" value="1" style="text;html=1;align=center;verticalAlign=middle;resizable=0;points=[];autosize=1;strokeColor=none;fillColor=none;" vertex="1" parent="1">
          <mxGeometry x="605" y="1500" width="30" height="30" as="geometry" />
        </mxCell>
        <mxCell id="wdqz7naByt3iV3KVul7O-65" value="treated from" style="text;html=1;align=center;verticalAlign=middle;resizable=0;points=[];autosize=1;strokeColor=none;fillColor=none;" vertex="1" parent="1">
          <mxGeometry x="265" y="1638" width="90" height="30" as="geometry" />
        </mxCell>
        <mxCell id="wdqz7naByt3iV3KVul7O-66" value="treats" style="text;html=1;align=center;verticalAlign=middle;resizable=0;points=[];autosize=1;strokeColor=none;fillColor=none;" vertex="1" parent="1">
          <mxGeometry x="365" y="1668" width="50" height="30" as="geometry" />
        </mxCell>
        <mxCell id="wdqz7naByt3iV3KVul7O-69" value="Use" style="endArrow=open;endSize=12;dashed=1;html=1;rounded=0;" edge="1" parent="1">
          <mxGeometry width="160" relative="1" as="geometry">
            <mxPoint x="-270" y="1440" as="sourcePoint" />
            <mxPoint x="-120" y="1440" as="targetPoint" />
          </mxGeometry>
        </mxCell>
        <mxCell id="wdqz7naByt3iV3KVul7O-70" value="" style="endArrow=diamondThin;endFill=0;endSize=24;html=1;rounded=0;exitX=0.571;exitY=0;exitDx=0;exitDy=0;exitPerimeter=0;" edge="1" parent="1" source="wdqz7naByt3iV3KVul7O-6">
          <mxGeometry width="160" relative="1" as="geometry">
            <mxPoint x="529.94" y="1198" as="sourcePoint" />
            <mxPoint x="141" y="1059" as="targetPoint" />
            <Array as="points">
              <mxPoint x="530" y="1058" />
            </Array>
          </mxGeometry>
        </mxCell>
        <mxCell id="wdqz7naByt3iV3KVul7O-71" value="*" style="endArrow=block;endFill=1;html=1;edgeStyle=orthogonalEdgeStyle;align=left;verticalAlign=top;rounded=0;entryX=1;entryY=0;entryDx=0;entryDy=0;exitX=0.5;exitY=1;exitDx=0;exitDy=0;" edge="1" parent="1" source="wdqz7naByt3iV3KVul7O-10" target="wdqz7naByt3iV3KVul7O-42">
          <mxGeometry x="-0.8537" y="10" relative="1" as="geometry">
            <mxPoint y="1510" as="sourcePoint" />
            <mxPoint x="160" y="1510" as="targetPoint" />
            <mxPoint as="offset" />
          </mxGeometry>
        </mxCell>
        <mxCell id="wdqz7naByt3iV3KVul7O-72" value="1" style="edgeLabel;resizable=0;html=1;align=left;verticalAlign=bottom;" connectable="0" vertex="1" parent="wdqz7naByt3iV3KVul7O-71">
          <mxGeometry x="-1" relative="1" as="geometry">
            <mxPoint x="-110" y="55" as="offset" />
          </mxGeometry>
        </mxCell>
        <mxCell id="wdqz7naByt3iV3KVul7O-73" value="*" style="endArrow=block;endFill=1;html=1;edgeStyle=orthogonalEdgeStyle;align=left;verticalAlign=top;rounded=0;entryX=-0.043;entryY=0.2;entryDx=0;entryDy=0;exitX=1;exitY=0.5;exitDx=0;exitDy=0;entryPerimeter=0;" edge="1" parent="1" source="wdqz7naByt3iV3KVul7O-10" target="wdqz7naByt3iV3KVul7O-14">
          <mxGeometry x="-0.8537" y="10" relative="1" as="geometry">
            <mxPoint x="605" y="1440.5" as="sourcePoint" />
            <mxPoint x="465" y="1505.5" as="targetPoint" />
            <mxPoint as="offset" />
            <Array as="points">
              <mxPoint x="470" y="1485" />
              <mxPoint x="470" y="1449" />
            </Array>
          </mxGeometry>
        </mxCell>
        <mxCell id="wdqz7naByt3iV3KVul7O-74" value="1" style="edgeLabel;resizable=0;html=1;align=left;verticalAlign=bottom;" connectable="0" vertex="1" parent="wdqz7naByt3iV3KVul7O-73">
          <mxGeometry x="-1" relative="1" as="geometry">
            <mxPoint x="-130" y="65" as="offset" />
          </mxGeometry>
        </mxCell>
        <mxCell id="wdqz7naByt3iV3KVul7O-75" value="1" style="text;html=1;align=center;verticalAlign=middle;resizable=0;points=[];autosize=1;strokeColor=none;fillColor=none;" vertex="1" parent="1">
          <mxGeometry x="605" y="1418" width="30" height="30" as="geometry" />
        </mxCell>
        <mxCell id="wdqz7naByt3iV3KVul7O-76" value="*" style="text;html=1;align=center;verticalAlign=middle;resizable=0;points=[];autosize=1;strokeColor=none;fillColor=none;" vertex="1" parent="1">
          <mxGeometry x="405" y="1458" width="30" height="30" as="geometry" />
        </mxCell>
        <mxCell id="wdqz7naByt3iV3KVul7O-79" value="" style="endArrow=open;endFill=1;endSize=12;html=1;rounded=0;entryX=0.589;entryY=1.1;entryDx=0;entryDy=0;entryPerimeter=0;exitX=0;exitY=0.5;exitDx=0;exitDy=0;" edge="1" parent="1" source="wdqz7naByt3iV3KVul7O-12" target="wdqz7naByt3iV3KVul7O-33">
          <mxGeometry width="160" relative="1" as="geometry">
            <mxPoint x="220" y="1500" as="sourcePoint" />
            <mxPoint x="160" y="1570" as="targetPoint" />
            <Array as="points">
              <mxPoint x="160" y="1500" />
              <mxPoint x="160" y="1560" />
              <mxPoint x="-60" y="1560" />
              <mxPoint x="-350" y="1560" />
            </Array>
          </mxGeometry>
        </mxCell>
        <mxCell id="wdqz7naByt3iV3KVul7O-80" value="1" style="text;html=1;align=center;verticalAlign=middle;resizable=0;points=[];autosize=1;strokeColor=none;fillColor=none;" vertex="1" parent="1">
          <mxGeometry x="-345" y="1498" width="30" height="30" as="geometry" />
        </mxCell>
        <mxCell id="wdqz7naByt3iV3KVul7O-81" value="*" style="text;html=1;align=center;verticalAlign=middle;resizable=0;points=[];autosize=1;strokeColor=none;fillColor=none;" vertex="1" parent="1">
          <mxGeometry x="195" y="1468" width="30" height="30" as="geometry" />
        </mxCell>
      </root>
    </mxGraphModel>
  </diagram>
</mxfile>
